#!OML:ASF F:\VICON\USERDATA\INSTALL\rory3\rory3.ASF
:FULLY-SPECIFIED
:DEGREES
77
root 1.1065526855167374 17.871853029054357 49.60798906149034 -3.575063600652679 1.558775738579393 -5.945092137876337
lfemur -17.768512110696456 -2.56225078347265 -16.02100596771547
ltibia 28.428175329498547
lfoot -6.273026727013914 1.913350685118937
ltoes -12.246010951811806
rfemur -4.092447079963234 3.6300660032436483 28.372864474228557
rtibia 37.91852831956418
rfoot -1.988172106163356 -10.701974078074599
rtoes 6.888182735268973
lowerback 1.0 1.1666164755144426 4.996584135331047
upperback 0.25025132347125056 2.652227306598207 1.7467754023701554
thorax -4.791056208496523 1.3096579250916096 -1.1921364260546863
lowerneck -16.36202877480223 -3.3655275268887976 -1.602115309370029
upperneck 21.514611646866072 -4.394217395753986 1.2050528169409371
head 9.74596737414777 -2.061525197581919 0.08237975373578024
lclavicle -1.0846286506500966e-15 -4.269197292870278e-16
lhumerus -35.29770269229957 2.5770603731911668 84.57634823722329
lradius 24.06654949741325
lwrist 7.857129329508713
lhand -27.153213791191483 23.240111050733788
lfingers nan
lthumb -0.8730278663803537 52.75589003681471
rclavicle -1.1037539978980518e-15 -4.562759944864677e-16
rhumerus -26.916693555462125 -17.275432363295593 -77.46912326924856
rradius 29.497319273820278
rwrist 4.342349212612387
rhand -17.47795310458482 1.0
rfingers nan
rthumb 9.09835251406522 -7.478039287948758
78
root 1.1102703338427053 17.897734595591757 49.63764056140068 -3.4896828406446825 1.836414466465122 -5.316377869409726
lfemur -15.926771890081474 -2.849577331965253 -17.365197022308603
ltibia 24.837668250636856
lfoot -6.232957115692556 -0.3969699169081669
ltoes -11.435877943318568
rfemur -4.956262639503447 3.1013560140747956 27.46239955232424
rtibia 40.91601171633653
rfoot -1.892645053180745 -11.460747703600596
rtoes 8.095180708327646
lowerback 1.0 1.0581921690606642 4.496744293012175
upperback 0.22977830641633099 2.4630363670667803 1.7069355212980124
thorax -4.787865149011617 1.2258687660296497 -1.059963332231464
lowerneck -16.40663739308701 -3.3652739725085197 -1.6005040151161907
upperneck 21.470407855935296 -4.398023291801814 1.3433348210651
head 9.726812631924426 -2.0573937897751158 0.14249883851013356
lclavicle -1.0851759151690373e-15 -4.2706497300389937e-16
lhumerus -35.27313614150427 2.941228509052409 84.46609849261014
lradius 24.70546308915497
lwrist 7.678973809787772
lhand -27.139956501778105 23.262154884822156
lfingers nan
lthumb -0.8720948417406029 52.78955902324921
rclavicle -1.100391513606574e-15 -4.53371771214101e-16
rhumerus -26.91566337153146 -16.7882412740876 -77.91028489659696
rradius 29.462358257350825
rwrist 4.662456785231648
rhand -17.453185244224947 1.0
rfingers nan
rthumb 9.09868255873427 -7.550384941617191
79
root 1.111074145370584 17.910639927461293 48.69960628652456 -3.5303800414136486 2.0527528758999454 -4.09163275882843
lfemur -13.6615065051774 -3.2233791942817946 -19.220566760339906
ltibia 22.743161088938738
lfoot -5.975359117503165 -0.819797565529576
ltoes -10.695230516314915
rfemur -6.334069353413255 2.3988564133219445 25.87336968488136
rtibia 43.981231912740824
rfoot -2.1470697734601423 -11.298791944251978
rtoes 8.674640802736265
lowerback 1.0 0.8597692818420188 3.5231866389291375
upperback 0.22475273106225455 2.066173908286696 1.573956498461
thorax -4.785950802741814 1.052039402503992 -0.7641077577846502
lowerneck -16.471467155652885 -3.3564581241598477 -1.5757407757076152
upperneck 21.392618277982884 -4.389596045728599 1.4829963518589042
head 9.696164239394086 -2.047714187402583 0.20491767618654702
lclavicle -1.083459657621401e-15 -4.2480943207114513e-16
lhumerus -34.94011294403432 2.980241587301374 84.39513268339945
lradius 25.290771525546457
lwrist 7.453391450289825
lhand -27.160649669502046 23.26871020897404
lfingers nan
lthumb -0.8818985498317318 52.81565845426961
rclavicle -1.1041347954697061e-15 -4.547586617597138e-16
rhumerus -26.940804609721596 -16.308303422637763 -78.33725449263156
rradius 29.36150926867947
rwrist 4.558728772401246
rhand -17.48002580454581 1.0
rfingers nan
rthumb 9.088743350289969 -7.67128139159231
80
root 1.142493810685024 17.920484556278016 48.86731876695637 -3.5458337946740897 2.487430307839559 -2.377398730945269
lfemur -11.20562264637252 -3.797141004948722 -21.581681076685665
ltibia 21.90538412571172
lfoot -6.514403481126092 -0.2661767143301289
ltoes -9.574311928918256
rfemur -9.009049431638838 1.5611021039996364 23.60983523132072
rtibia 47.65503946095292
rfoot -2.7253909638790903 -10.34278180288468
rtoes 8.751424547014109
lowerback 1.0 0.552521313478008 2.2062061695536666
upperback 0.23063168242994003 1.451660298107191 1.3747503092755895
thorax -4.798804185827898 0.7570989746259965 -0.33756465765137733
lowerneck -16.5599458160547 -3.3325941288489296 -1.533554134430207
upperneck 21.296748589842352 -4.360615172472288 1.6040136183681515
head 9.667696548101416 -2.0303297929511186 0.26233607197220066
lclavicle -1.08237131072361e-15 -4.2245893085886946e-16
lhumerus -34.35046921044029 2.6300959009310083 84.34629424523362
lradius 25.832207615333566
lwrist 7.230979546483553
lhand -27.150022353732766 23.328499494241058
lfingers nan
lthumb -0.8797261413346364 52.867211359503784
rclavicle -1.1135971964193252e-15 -4.591826402980612e-16
rhumerus -27.003053412615714 -15.940374517202404 -78.73912288845158
rradius 29.209846920493884
rwrist 4.289820332648425
rhand -17.45927704760988 1.0
rfingers nan
rthumb 9.07783288431584 -7.797381013384572
81
root 1.1782843493866562 17.926264224035425 49.340163749078364 -3.4649820152417545 2.841058119985158 -0.856025786134385
lfemur -8.540518016564205 -4.414618769351646 -23.663327382341073
ltibia 21.715282600179385
lfoot -7.081790883574699 0.32928531144420536
ltoes -8.60294627527851
rfemur -12.596617465442726 0.8041785374506358 21.462512326868307
rtibia 51.534834288535585
rfoot -3.7193826400080727 -8.964722295343165
rtoes 8.666854353685828
lowerback 1.0 0.1969569362996897 1.0110979110407092
upperback 0.23096485276525405 0.7491369301245633 1.1613088382971417
thorax -4.8313308806103725 0.4098244827654125 0.16190364425650583
lowerneck -16.682198690847386 -3.2906315798529557 -1.480763489332401
upperneck 21.189020531262717 -4.30698314778006 1.6861965150446858
head 9.647083514026612 -2.004192381973594 0.30849882074934054
lclavicle -1.0818769697607469e-15 -4.200557910302565e-16
lhumerus -33.53381534856352 1.9585347528361838 84.29690478409395
lradius 26.35065192049493
lwrist 7.051727717446568
lhand -27.135249569088845 23.407663536066607
lfingers nan
lthumb -0.8536404954413738 52.954450172835834
rclavicle -1.1279555966633163e-15 -4.661121792798344e-16
rhumerus -27.124277647654296 -15.812893035371703 -79.13506302083663
rradius 29.016094226754966
rwrist 3.9881691918201705
rhand -17.483802780996363 1.0
rfingers nan
rthumb 9.067961658548164 -7.860114228941782
